<svg id="Layer_1" data-name="Layer 1" xmlns="http://www.w3.org/2000/svg" viewBox="0 0 216 54.91"><defs><style>.cls-1{fill:#fff;}.cls-2{fill:#3160ad;}.cls-3{fill:#ababab;}</style></defs><rect class="cls-1" x="60.94" y="7.89" width="1.81" height="24.45"/><path class="cls-1" d="M82.27,16.77a7.21,7.21,0,0,0-5.41-2,8.26,8.26,0,0,0-4,1A7.47,7.47,0,0,0,70.32,18V15H68.64V32.34h1.74V22.7a6.52,6.52,0,0,1,.81-3.19,5.87,5.87,0,0,1,2.28-2.25,6.65,6.65,0,0,1,3.32-.83A5.58,5.58,0,0,1,81,18a6.25,6.25,0,0,1,1.48,4.46v9.91h1.74v-10A7.73,7.73,0,0,0,82.27,16.77Z"/><path class="cls-1" d="M103,16.77a7.2,7.2,0,0,0-5.4-2,8.27,8.27,0,0,0-4,1A7.47,7.47,0,0,0,91.09,18V15H89.41V32.34h1.75V22.7A6.38,6.38,0,0,1,92,19.51a5.85,5.85,0,0,1,2.27-2.25,6.66,6.66,0,0,1,3.33-.83,5.57,5.57,0,0,1,4.2,1.54,6.25,6.25,0,0,1,1.48,4.46v9.91H105v-10A7.69,7.69,0,0,0,103,16.77Z"/><path class="cls-1" d="M125.63,19.06a8.29,8.29,0,0,0-3.16-3.22,9.62,9.62,0,0,0-9.12,0,8.22,8.22,0,0,0-3.16,3.22,9.32,9.32,0,0,0-1.14,4.61,9.32,9.32,0,0,0,1.14,4.61,8.26,8.26,0,0,0,3.16,3.21,9.54,9.54,0,0,0,9.12,0,8.33,8.33,0,0,0,3.16-3.21,9.35,9.35,0,0,0,1.14-4.61A9.32,9.32,0,0,0,125.63,19.06ZM125,23.67a7.57,7.57,0,0,1-.93,3.74A6.76,6.76,0,0,1,121.54,30h0a7.56,7.56,0,0,1-7.3,0,6.64,6.64,0,0,1-2.53-2.62,8.06,8.06,0,0,1,0-7.48,6.64,6.64,0,0,1,2.53-2.62,7.49,7.49,0,0,1,7.3,0,6.76,6.76,0,0,1,2.55,2.62A7.57,7.57,0,0,1,125,23.67Z"/><polygon class="cls-1" points="143.05 15 136.77 30.11 130.52 15 128.61 15 135.84 32.25 135.88 32.34 137.66 32.34 144.96 15 143.05 15"/><path class="cls-1" d="M162.67,15l0,3.42a7.29,7.29,0,0,0-2.7-2.58,9,9,0,0,0-4.47-1.12A8.79,8.79,0,0,0,151,15.86,8.12,8.12,0,0,0,147.9,19a9.63,9.63,0,0,0-1.1,4.63,9.59,9.59,0,0,0,1.1,4.62A8,8,0,0,0,151,31.47a8.77,8.77,0,0,0,4.49,1.15,9.12,9.12,0,0,0,4.47-1.11,7.16,7.16,0,0,0,2.7-2.56l0,3.39h1.68V15Zm-3.46,15.06a7.76,7.76,0,0,1-7.29,0,6.43,6.43,0,0,1-2.48-2.56,8,8,0,0,1-.9-3.83,8,8,0,0,1,.9-3.83,6.46,6.46,0,0,1,2.48-2.57,7.76,7.76,0,0,1,7.29,0,6.51,6.51,0,0,1,2.5,2.57,8,8,0,0,1,.89,3.83,8,8,0,0,1-.89,3.83A6.48,6.48,0,0,1,159.21,30.06Z"/><path class="cls-2" d="M187.43,21.79a7.53,7.53,0,0,0-3.56-2.14,7.51,7.51,0,0,0,3.23-2.1,5.45,5.45,0,0,0,.15-7,7.51,7.51,0,0,0-3.31-2.29,15,15,0,0,0-9.73,0,7.45,7.45,0,0,0-3.31,2.29,5.47,5.47,0,0,0,.14,7,7.57,7.57,0,0,0,3.23,2.1,7.55,7.55,0,0,0-3.55,2.14,5.8,5.8,0,0,0-.34,7.61,8,8,0,0,0,3.52,2.43,16.18,16.18,0,0,0,10.35,0,8,8,0,0,0,3.51-2.43A5.63,5.63,0,0,0,189,25.77,5.69,5.69,0,0,0,187.43,21.79ZM179.07,31a13,13,0,0,1-4.3-.66,6.5,6.5,0,0,1-2.86-1.85,4.09,4.09,0,0,1-1-2.72,4,4,0,0,1,1-2.7,6.83,6.83,0,0,1,2.88-1.86,13.9,13.9,0,0,1,8.59,0A6.86,6.86,0,0,1,186.26,23a4,4,0,0,1,1,2.7,4.06,4.06,0,0,1-1,2.71,6.59,6.59,0,0,1-2.89,1.86A12.91,12.91,0,0,1,179.07,31Zm0-21.82a11.64,11.64,0,0,1,4,.63,6.33,6.33,0,0,1,2.68,1.73,3.75,3.75,0,0,1,0,5,6.3,6.3,0,0,1-2.68,1.73,12.89,12.89,0,0,1-8,0,6.37,6.37,0,0,1-2.7-1.73,3.78,3.78,0,0,1,0-5,6.47,6.47,0,0,1,2.7-1.73A11.73,11.73,0,0,1,179.07,9.15Z"/><path class="cls-1" d="M206.3,25.29a5,5,0,0,0-2.24-1.57,22.5,22.5,0,0,0-4.19-1.09,21.46,21.46,0,0,1-3.23-.83,3.68,3.68,0,0,1-1.55-.94,2.13,2.13,0,0,1-.44-1.4A2.52,2.52,0,0,1,196,17.17a7.75,7.75,0,0,1,4-.84,9.18,9.18,0,0,1,3.07.46,8.42,8.42,0,0,1,2.53,1.44l.11.09,1-1.26-.11-.1a10,10,0,0,0-3-1.71,10.87,10.87,0,0,0-3.66-.56A9.15,9.15,0,0,0,194.83,16a4,4,0,0,0-1.93,3.51,3.69,3.69,0,0,0,.65,2.24,4.73,4.73,0,0,0,2.1,1.47,22.39,22.39,0,0,0,4,1.06,23.15,23.15,0,0,1,3.52.89,4,4,0,0,1,1.68,1,2.29,2.29,0,0,1,.48,1.5,2.71,2.71,0,0,1-1.45,2.41,7.46,7.46,0,0,1-4,.92,9.49,9.49,0,0,1-3.67-.71,7.48,7.48,0,0,1-2.74-1.89l-.11-.13-1.09,1.19.08.09a8.24,8.24,0,0,0,3.16,2.26,11,11,0,0,0,4.37.87A8.93,8.93,0,0,0,205,31.3a4.26,4.26,0,0,0,2-3.63A4,4,0,0,0,206.3,25.29Z"/><path class="cls-1" d="M62.18,41.36v6.15h-1V41.36Z"/><path class="cls-1" d="M71.2,47.51h-1l-3-4.59v4.59h-1V41.36h1l3,4.57V41.36h1Z"/><path class="cls-1" d="M78.79,41.36v.83H76.18V44h2v.82h-2v2.69h-1V41.36Z"/><path class="cls-1" d="M83.38,41.36v6.15h-1V41.36Z"/><path class="cls-1" d="M92.4,47.51h-1l-3-4.59v4.59h-1V41.36h1l3,4.57V41.36h1Z"/><path class="cls-1" d="M97.39,41.36v6.15h-1V41.36Z"/><path class="cls-1" d="M105.33,41.36v.83H103.7v5.32h-1V42.19h-1.64v-.83Z"/><path class="cls-1" d="M110,42.18V44h2.12v.82H110v1.88h2.38v.83H109V41.36h3.39v.82Z"/><path class="cls-1" d="M122.23,41.36v6.15h-1V41.36Z"/><path class="cls-1" d="M131.26,47.51h-1l-3-4.59v4.59h-1V41.36h1l3,4.57V41.36h1Z"/><path class="cls-1" d="M139.2,41.36v.83h-1.64v5.32h-1V42.19h-1.65v-.83Z"/><path class="cls-1" d="M143.87,42.18V44H146v.82h-2.12v1.88h2.39v.83h-3.39V41.36h3.39v.82Z"/><path class="cls-1" d="M151.15,46.69h2.08v.82h-3.08V41.36h1Z"/><path class="cls-1" d="M157.73,46.69h2.07v.82h-3.08V41.36h1Z"/><path class="cls-1" d="M164.3,41.36v6.15h-1V41.36Z"/><path class="cls-1" d="M172.72,43.13a1.63,1.63,0,0,0-.66-.69,2,2,0,0,0-1-.24,2.18,2.18,0,0,0-1.09.28,1.86,1.86,0,0,0-.74.78,2.39,2.39,0,0,0-.27,1.16,2.46,2.46,0,0,0,.27,1.17,1.86,1.86,0,0,0,.74.78,2.08,2.08,0,0,0,1.09.28,1.89,1.89,0,0,0,1.33-.46,2,2,0,0,0,.63-1.25h-2.31v-.8h3.39v.79a3.15,3.15,0,0,1-.51,1.31,3,3,0,0,1-2.53,1.32,3.22,3.22,0,0,1-1.58-.4A3,3,0,0,1,168.36,46a3.33,3.33,0,0,1,0-3.24,3,3,0,0,1,1.14-1.11,3.17,3.17,0,0,1,1.58-.4,3.2,3.2,0,0,1,1.74.48,2.72,2.72,0,0,1,1.11,1.36Z"/><path class="cls-1" d="M178.77,42.18V44h2.12v.82h-2.12v1.88h2.38v.83h-3.39V41.36h3.39v.82Z"/><path class="cls-1" d="M190.09,47.51h-1l-3-4.59v4.59h-1V41.36h1l3,4.57V41.36h1Z"/><path class="cls-1" d="M194.14,42.8a3,3,0,0,1,1.14-1.11,3.17,3.17,0,0,1,1.58-.4,3.22,3.22,0,0,1,1.75.48,2.72,2.72,0,0,1,1.11,1.36H198.5a1.6,1.6,0,0,0-.66-.72,2,2,0,0,0-1-.24,2.11,2.11,0,0,0-1.08.27,2,2,0,0,0-.75.79,2.52,2.52,0,0,0-.27,1.19,2.49,2.49,0,0,0,.27,1.19,1.93,1.93,0,0,0,.75.8,2.11,2.11,0,0,0,1.08.27,2.06,2.06,0,0,0,1-.23,1.57,1.57,0,0,0,.66-.73h1.22a2.72,2.72,0,0,1-1.11,1.36,3.22,3.22,0,0,1-1.75.48,3.25,3.25,0,0,1-1.58-.4A3,3,0,0,1,194.14,46a3.33,3.33,0,0,1,0-3.24Z"/><path class="cls-1" d="M204.55,42.18V44h2.12v.82h-2.12v1.88h2.38v.83h-3.39V41.36h3.39v.82Z"/><path class="cls-2" d="M25.41,43.38a20.9,20.9,0,0,0,.39,4h3.88A19.34,19.34,0,0,0,49,28V22.22a22,22,0,0,0-2.31-.13A21.29,21.29,0,0,0,25.41,43.38Z"/><path class="cls-3" d="M28.33,7.35A19.32,19.32,0,0,0,9,26.68V47.36h9a28.94,28.94,0,0,1,28.7-33c.78,0,1.55,0,2.31.1V7.35Z"/><circle class="cls-2" cx="18.04" cy="15.29" r="7.33"/></svg>